<?xml version="1.0" encoding="UTF-8"?>
<svg xmlns="http://www.w3.org/2000/svg" xmlns:xlink="http://www.w3.org/1999/xlink" width="px" height="0px" viewBox="0 0 320 158" version="1.1">
<g id="surface1">
<path style=" stroke:none;fill-rule:nonzero;fill:rgb(31.37255%,9.803922%,77.254903%);fill-opacity:1;" d="M 159.78125 111.230469 C 150.902344 111.230469 142.9375 105.957031 139.539062 97.796875 L 98.582031 0 L 122.554688 0 L 159.921875 89.464844 L 197.253906 0 L 221.222656 0 L 180.023438 97.832031 C 176.609375 105.957031 168.660156 111.230469 159.78125 111.230469 Z M 159.78125 111.230469 "/>
<path style=" stroke:none;fill-rule:nonzero;fill:rgb(31.37255%,9.803922%,77.254903%);fill-opacity:1;" d="M 213.222656 157.964844 C 204.378906 157.964844 196.449219 152.730469 193.015625 144.640625 C 189.566406 136.480469 191.351562 127.164062 197.585938 120.84375 L 272.179688 45.285156 L 281.496094 67.261719 L 213.203125 136.304688 L 310.542969 135.761719 L 319.859375 157.738281 L 213.238281 158 L 213.203125 157.964844 Z M 213.222656 157.964844 "/>
<path style=" stroke:none;fill-rule:nonzero;fill:rgb(31.37255%,9.803922%,77.254903%);fill-opacity:1;" d="M 0 157.703125 L 9.316406 135.726562 L 106.65625 136.269531 L 38.382812 67.207031 L 47.699219 45.230469 L 122.292969 120.789062 C 128.523438 127.09375 130.328125 136.445312 126.863281 144.585938 C 123.429688 152.695312 115.460938 157.914062 106.65625 157.914062 L 0.0351562 157.667969 Z M 0 157.703125 "/>
</g>
</svg>
