<?xml version="1.0" encoding="UTF-8"?>
<svg xmlns="http://www.w3.org/2000/svg" xmlns:xlink="http://www.w3.org/1999/xlink" width="px" height="0px" viewBox="0 0 13 13" version="1.1">
<g id="surface1">
<path style=" stroke:none;fill-rule:nonzero;fill:rgb(94.117647%,32.156864%,21.568628%);fill-opacity:1;" d="M 13 6.5 C 13 2.910156 10.089844 0 6.5 0 C 2.910156 0 0 2.910156 0 6.5 C 0 10.089844 2.910156 13 6.5 13 C 10.089844 13 13 10.089844 13 6.5 Z M 13 6.5 "/>
<path style=" stroke:none;fill-rule:nonzero;fill:rgb(100%,100%,100%);fill-opacity:1;" d="M 6.511719 3.402344 C 5.34375 3.457031 4.425781 4.417969 4.425781 5.589844 C 4.425781 6.757812 5.34375 7.71875 6.511719 7.773438 L 7.226562 7.773438 L 7.226562 6.953125 L 6.511719 6.953125 C 5.957031 6.953125 5.457031 6.621094 5.246094 6.109375 C 5.03125 5.597656 5.152344 5.007812 5.542969 4.617188 C 5.9375 4.222656 6.527344 4.109375 7.039062 4.320312 C 7.546875 4.535156 7.882812 5.035156 7.878906 5.589844 L 7.878906 7.601562 C 7.890625 8.152344 7.566406 8.65625 7.058594 8.875 C 6.550781 9.09375 5.960938 8.980469 5.570312 8.589844 L 4.992188 9.148438 C 5.394531 9.554688 5.941406 9.78125 6.511719 9.785156 L 6.539062 9.785156 C 7.730469 9.769531 8.6875 8.804688 8.695312 7.613281 L 8.695312 5.535156 C 8.664062 4.351562 7.695312 3.402344 6.511719 3.402344 "/>
</g>
</svg>
