<?xml version="1.0" encoding="UTF-8"?>
<svg xmlns="http://www.w3.org/2000/svg" xmlns:xlink="http://www.w3.org/1999/xlink" width="px" height="0px" viewBox="0 0 12 12" version="1.1">
<g id="surface1">
<path style=" stroke:none;fill-rule:nonzero;fill:rgb(63.137257%,63.137257%,66.666669%);fill-opacity:1;" d="M 8.179688 5.128906 C 8.058594 5.164062 7.957031 5.25 7.902344 5.363281 L 7.867188 5.4375 L 7.867188 5.542969 C 7.867188 5.640625 7.867188 5.652344 7.894531 5.71875 C 7.933594 5.816406 7.972656 5.875 8.039062 5.941406 C 8.160156 6.0625 8.296875 6.09375 8.476562 6.046875 C 8.589844 6.011719 8.683594 5.933594 8.734375 5.828125 C 8.777344 5.75 8.792969 5.664062 8.777344 5.578125 C 8.742188 5.351562 8.609375 5.1875 8.414062 5.128906 C 8.335938 5.113281 8.257812 5.113281 8.179688 5.128906 Z M 3.578125 5.132812 C 3.425781 5.179688 3.3125 5.292969 3.253906 5.453125 C 3.226562 5.535156 3.214844 5.625 3.222656 5.710938 C 3.253906 5.867188 3.378906 6.007812 3.523438 6.046875 C 3.703125 6.09375 3.839844 6.0625 3.960938 5.941406 C 4.027344 5.875 4.066406 5.816406 4.105469 5.71875 C 4.132812 5.652344 4.132812 5.640625 4.132812 5.542969 L 4.132812 5.4375 L 4.097656 5.363281 C 4.042969 5.25 3.941406 5.164062 3.816406 5.128906 C 3.738281 5.113281 3.65625 5.113281 3.578125 5.132812 Z M 5.671875 6.132812 C 5.605469 6.167969 5.558594 6.257812 5.574219 6.324219 C 5.589844 6.394531 5.652344 6.46875 5.75 6.527344 C 5.800781 6.558594 5.804688 6.5625 5.808594 6.59375 C 5.808594 6.613281 5.804688 6.667969 5.792969 6.71875 C 5.785156 6.765625 5.777344 6.8125 5.777344 6.828125 C 5.777344 6.863281 5.8125 6.925781 5.847656 6.953125 C 5.878906 6.980469 5.886719 6.980469 5.976562 6.984375 C 6.058594 6.988281 6.074219 6.984375 6.105469 6.96875 C 6.191406 6.929688 6.214844 6.851562 6.183594 6.707031 C 6.15625 6.585938 6.160156 6.566406 6.226562 6.527344 C 6.292969 6.488281 6.367188 6.417969 6.386719 6.371094 C 6.429688 6.28125 6.390625 6.175781 6.300781 6.132812 C 6.148438 6.117188 6.105469 6.128906 6.03125 6.175781 L 5.988281 6.203125 L 5.964844 6.1875 C 5.851562 6.121094 5.832031 6.117188 5.765625 6.117188 Z M 5.867188 5.035156 C 5.679688 5.054688 5.628906 5.058594 5.539062 5.078125 C 5.394531 5.109375 5.199219 5.175781 5.0625 5.242188 C 4.59375 5.472656 4.269531 5.855469 4.171875 6.300781 C 4.148438 6.386719 4.148438 6.414062 4.148438 6.5625 C 4.148438 6.710938 4.148438 6.742188 4.167969 6.824219 C 4.300781 7.40625 4.835938 7.835938 5.527344 7.914062 C 5.675781 7.929688 6.324219 7.929688 6.472656 7.914062 C 7.027344 7.851562 7.507812 7.550781 7.71875 7.128906 C 7.777344 7.015625 7.804688 6.941406 7.832031 6.824219 C 7.851562 6.742188 7.851562 6.710938 7.851562 6.566406 C 7.851562 6.414062 7.851562 6.386719 7.828125 6.300781 C 7.6875 5.652344 7.058594 5.148438 6.292969 5.050781 C 6.152344 5.035156 6.007812 5.03125 5.867188 5.035156 Z M 6.1875 5.503906 C 6.445312 5.53125 6.691406 5.621094 6.910156 5.761719 C 7.019531 5.835938 7.175781 5.988281 7.242188 6.089844 C 7.328125 6.21875 7.375 6.34375 7.394531 6.5 C 7.40625 6.574219 7.402344 6.628906 7.375 6.742188 C 7.335938 6.914062 7.207031 7.09375 7.039062 7.222656 C 6.929688 7.292969 6.816406 7.351562 6.695312 7.394531 C 6.503906 7.457031 6.378906 7.46875 5.929688 7.464844 C 5.640625 7.460938 5.589844 7.460938 5.503906 7.441406 C 5.21875 7.390625 4.992188 7.277344 4.828125 7.101562 C 4.699219 6.964844 4.636719 6.835938 4.605469 6.628906 C 4.589844 6.535156 4.617188 6.375 4.671875 6.242188 C 4.742188 6.078125 4.917969 5.878906 5.089844 5.761719 C 5.292969 5.625 5.558594 5.53125 5.800781 5.503906 C 5.894531 5.496094 6.09375 5.496094 6.1875 5.503906 Z M 3.4375 0.00390625 C 3.3125 0.0273438 3.195312 0.078125 3.09375 0.152344 C 2.808594 0.371094 2.585938 0.832031 2.492188 1.410156 C 2.457031 1.628906 2.433594 1.929688 2.433594 2.160156 C 2.433594 2.433594 2.464844 2.78125 2.511719 3.023438 C 2.519531 3.074219 2.527344 3.121094 2.523438 3.125 C 2.492188 3.152344 2.460938 3.175781 2.429688 3.203125 C 2.25 3.351562 2.089844 3.519531 1.953125 3.710938 C 1.707031 4.058594 1.546875 4.460938 1.484375 4.882812 C 1.457031 5.105469 1.453125 5.332031 1.472656 5.558594 C 1.519531 5.949219 1.636719 6.277344 1.835938 6.578125 L 1.902344 6.675781 L 1.882812 6.710938 C 1.746094 6.933594 1.632812 7.261719 1.578125 7.574219 C 1.539062 7.824219 1.53125 7.890625 1.53125 8.222656 C 1.53125 8.558594 1.535156 8.625 1.578125 8.855469 C 1.625 9.132812 1.71875 9.425781 1.828125 9.621094 C 1.863281 9.6875 1.949219 9.820312 1.960938 9.824219 C 1.964844 9.828125 1.953125 9.859375 1.9375 9.894531 C 1.804688 10.195312 1.710938 10.507812 1.664062 10.832031 C 1.632812 11.039062 1.628906 11.109375 1.628906 11.328125 C 1.628906 11.609375 1.644531 11.742188 1.703125 11.96875 L 1.710938 12 L 2.449219 12 L 2.425781 11.953125 C 2.277344 11.679688 2.261719 11.167969 2.390625 10.65625 C 2.449219 10.421875 2.515625 10.246094 2.640625 10.007812 L 2.714844 9.863281 L 2.714844 9.773438 C 2.714844 9.691406 2.710938 9.683594 2.683594 9.628906 C 2.660156 9.582031 2.625 9.539062 2.585938 9.503906 C 2.507812 9.425781 2.441406 9.332031 2.394531 9.230469 C 2.183594 8.773438 2.140625 8.089844 2.289062 7.507812 C 2.351562 7.261719 2.457031 7.046875 2.5625 6.929688 C 2.632812 6.859375 2.671875 6.761719 2.675781 6.664062 C 2.675781 6.566406 2.640625 6.484375 2.5625 6.402344 C 2.339844 6.164062 2.195312 5.863281 2.152344 5.539062 C 2.085938 5.058594 2.210938 4.535156 2.5 4.121094 C 2.78125 3.714844 3.175781 3.453125 3.617188 3.382812 C 3.71875 3.367188 3.902344 3.371094 4.003906 3.386719 C 4.117188 3.410156 4.1875 3.402344 4.261719 3.367188 C 4.351562 3.324219 4.394531 3.273438 4.449219 3.152344 C 4.496094 3.046875 4.53125 2.984375 4.628906 2.863281 C 4.746094 2.71875 4.859375 2.621094 5.039062 2.5 C 5.246094 2.363281 5.480469 2.265625 5.714844 2.21875 C 5.800781 2.203125 5.839844 2.199219 6 2.199219 C 6.160156 2.199219 6.199219 2.203125 6.285156 2.21875 C 6.640625 2.296875 6.972656 2.46875 7.242188 2.71875 C 7.300781 2.773438 7.441406 2.945312 7.484375 3.019531 C 7.503906 3.046875 7.53125 3.109375 7.550781 3.152344 C 7.605469 3.273438 7.648438 3.324219 7.738281 3.367188 C 7.808594 3.402344 7.882812 3.410156 7.988281 3.390625 C 8.160156 3.359375 8.292969 3.363281 8.460938 3.398438 C 9.035156 3.511719 9.53125 3.984375 9.753906 4.617188 C 9.945312 5.171875 9.890625 5.75 9.605469 6.191406 C 9.554688 6.269531 9.507812 6.328125 9.4375 6.402344 C 9.285156 6.5625 9.285156 6.761719 9.4375 6.929688 C 9.683594 7.199219 9.835938 7.863281 9.789062 8.445312 C 9.761719 8.832031 9.660156 9.179688 9.523438 9.375 C 9.492188 9.421875 9.453125 9.464844 9.414062 9.503906 C 9.375 9.539062 9.339844 9.582031 9.316406 9.628906 C 9.289062 9.683594 9.285156 9.691406 9.285156 9.773438 L 9.285156 9.863281 L 9.359375 10.007812 C 9.484375 10.246094 9.550781 10.421875 9.609375 10.65625 C 9.738281 11.160156 9.726562 11.660156 9.582031 11.945312 C 9.558594 12 9.722656 12 9.925781 12 L 10.289062 12 L 10.300781 11.964844 L 10.316406 11.894531 C 10.328125 11.859375 10.347656 11.746094 10.363281 11.636719 C 10.375 11.53125 10.375 11.128906 10.363281 11.007812 C 10.304688 10.570312 10.214844 10.222656 10.0625 9.894531 C 10.046875 9.859375 10.035156 9.828125 10.039062 9.824219 C 10.042969 9.824219 10.070312 9.789062 10.09375 9.75 C 10.28125 9.464844 10.398438 9.109375 10.457031 8.636719 C 10.472656 8.503906 10.472656 7.945312 10.457031 7.820312 C 10.414062 7.5 10.363281 7.28125 10.28125 7.058594 C 10.234375 6.9375 10.179688 6.820312 10.117188 6.710938 L 10.097656 6.675781 L 10.164062 6.578125 C 10.363281 6.277344 10.480469 5.949219 10.527344 5.558594 C 10.546875 5.332031 10.542969 5.105469 10.515625 4.882812 C 10.453125 4.460938 10.289062 4.058594 10.046875 3.710938 C 9.910156 3.519531 9.75 3.351562 9.570312 3.203125 C 9.539062 3.175781 9.507812 3.152344 9.476562 3.125 C 9.476562 3.089844 9.480469 3.054688 9.488281 3.023438 C 9.59375 2.476562 9.589844 1.800781 9.480469 1.269531 C 9.386719 0.808594 9.214844 0.441406 8.992188 0.230469 C 8.8125 0.0585938 8.632812 -0.0117188 8.414062 0 C 7.917969 0.03125 7.515625 0.605469 7.359375 1.507812 C 7.335938 1.625 7.320312 1.746094 7.308594 1.871094 C 7.308594 1.886719 7.304688 1.902344 7.300781 1.902344 C 7.277344 1.890625 7.25 1.878906 7.226562 1.863281 C 6.855469 1.640625 6.433594 1.519531 6 1.515625 C 5.585938 1.515625 5.15625 1.636719 4.773438 1.863281 C 4.75 1.878906 4.722656 1.890625 4.699219 1.902344 C 4.695312 1.902344 4.691406 1.886719 4.691406 1.871094 C 4.679688 1.75 4.664062 1.628906 4.640625 1.507812 C 4.5 0.695312 4.167969 0.160156 3.730469 0.0234375 C 3.632812 0.00390625 3.535156 -0.00390625 3.4375 0.00390625 Z M 3.582031 0.703125 C 3.707031 0.804688 3.84375 1.085938 3.925781 1.398438 C 3.941406 1.453125 3.953125 1.519531 3.960938 1.542969 C 3.960938 1.566406 3.972656 1.621094 3.980469 1.660156 C 4.011719 1.84375 4.027344 2.039062 4.03125 2.28125 L 4.03125 2.519531 L 3.972656 2.605469 L 3.914062 2.695312 L 3.773438 2.695312 C 3.613281 2.695312 3.449219 2.714844 3.296875 2.757812 L 3.175781 2.785156 C 3.160156 2.789062 3.160156 2.785156 3.148438 2.714844 C 3.097656 2.328125 3.101562 1.9375 3.15625 1.554688 C 3.21875 1.160156 3.363281 0.804688 3.503906 0.699219 C 3.539062 0.671875 3.542969 0.671875 3.582031 0.703125 Z M 8.496094 0.699219 C 8.582031 0.761719 8.675781 0.929688 8.746094 1.140625 C 8.886719 1.570312 8.925781 2.15625 8.851562 2.714844 C 8.839844 2.785156 8.839844 2.789062 8.824219 2.785156 L 8.703125 2.757812 C 8.546875 2.714844 8.386719 2.695312 8.226562 2.695312 L 8.085938 2.695312 L 8.027344 2.605469 L 7.96875 2.519531 L 7.96875 2.28125 C 7.972656 1.945312 8.003906 1.6875 8.078125 1.394531 C 8.15625 1.085938 8.292969 0.804688 8.417969 0.703125 C 8.457031 0.671875 8.460938 0.671875 8.496094 0.699219 Z M 8.496094 0.699219 "/>
</g>
</svg>
