<?xml version="1.0" encoding="UTF-8"?>
<svg xmlns="http://www.w3.org/2000/svg" xmlns:xlink="http://www.w3.org/1999/xlink" width="px" height="0px" viewBox="0 0 12 12" version="1.1">
<g id="surface1">
<path style=" stroke:none;fill-rule:nonzero;fill:rgb(63.137257%,63.137257%,66.666669%);fill-opacity:1;" d="M 11.140625 4.910156 C 11.414062 4.09375 11.320312 3.199219 10.882812 2.457031 C 10.230469 1.316406 8.914062 0.730469 7.628906 1.003906 C 6.902344 0.199219 5.804688 -0.160156 4.746094 0.0664062 C 3.6875 0.289062 2.828125 1.0625 2.492188 2.089844 C 1.644531 2.265625 0.917969 2.792969 0.492188 3.539062 C -0.171875 4.679688 -0.0195312 6.113281 0.863281 7.089844 C 0.589844 7.90625 0.683594 8.800781 1.117188 9.542969 C 1.773438 10.683594 3.089844 11.269531 4.375 10.996094 C 4.949219 11.636719 5.769531 12.003906 6.628906 12 C 7.945312 12 9.113281 11.152344 9.515625 9.898438 C 10.359375 9.722656 11.089844 9.195312 11.515625 8.445312 C 12.167969 7.3125 12.015625 5.882812 11.140625 4.910156 Z M 6.628906 11.214844 C 6.105469 11.214844 5.59375 11.03125 5.191406 10.695312 L 5.261719 10.652344 L 7.652344 9.273438 C 7.773438 9.203125 7.847656 9.074219 7.847656 8.933594 L 7.847656 5.566406 L 8.859375 6.148438 L 8.878906 8.96875 C 8.875 10.207031 7.871094 11.210938 6.628906 11.214844 Z M 1.800781 9.152344 C 1.535156 8.695312 1.441406 8.164062 1.53125 7.644531 L 1.601562 7.6875 L 3.996094 9.066406 C 4.117188 9.136719 4.265625 9.136719 4.386719 9.066406 L 7.304688 7.382812 L 7.304688 8.546875 L 4.871094 9.976562 C 3.792969 10.59375 2.421875 10.226562 1.800781 9.152344 Z M 1.171875 3.949219 C 1.4375 3.488281 1.855469 3.140625 2.351562 2.960938 L 2.351562 5.800781 C 2.351562 5.941406 2.425781 6.070312 2.546875 6.136719 L 5.453125 7.816406 L 4.445312 8.398438 L 1.992188 7.007812 C 0.921875 6.382812 0.550781 5.011719 1.171875 3.9375 Z M 9.46875 5.875 L 6.550781 4.183594 L 7.558594 3.601562 L 10.011719 4.996094 C 10.765625 5.429688 11.199219 6.261719 11.125 7.128906 C 11.054688 7.996094 10.488281 8.742188 9.671875 9.046875 L 9.671875 6.210938 C 9.667969 6.070312 9.589844 5.941406 9.46875 5.875 Z M 10.472656 4.363281 L 10.402344 4.320312 L 8.015625 2.929688 C 7.894531 2.859375 7.746094 2.859375 7.625 2.929688 L 4.703125 4.613281 L 4.703125 3.449219 L 7.132812 2.023438 C 7.890625 1.589844 8.828125 1.628906 9.542969 2.128906 C 10.257812 2.628906 10.621094 3.496094 10.472656 4.355469 Z M 4.152344 6.429688 L 3.144531 5.847656 L 3.125 3.035156 C 3.125 2.164062 3.628906 1.371094 4.417969 1.003906 C 5.210938 0.632812 6.140625 0.753906 6.8125 1.308594 L 6.742188 1.351562 L 4.351562 2.730469 C 4.230469 2.800781 4.15625 2.929688 4.15625 3.070312 Z M 4.703125 5.25 L 6.003906 4.5 L 7.304688 5.25 L 7.304688 6.75 L 6.007812 7.5 L 4.703125 6.75 Z M 4.703125 5.25 "/>
</g>
</svg>
